<?xml version="1.0" encoding="utf-8"?>
<svg xmlns="http://www.w3.org/2000/svg" style="margin: auto; background: none; display: block; shape-rendering: auto;" width="464" height="250" preserveAspectRatio="xMidYMid">
<style type="text/css">
  text {
    text-anchor: middle; font-size: 80px; opacity: 0;
  }
</style>
<g style="transform-origin:232px 125px;transform:scale(1)">
<g transform="translate(232,125)">
  <g transform="translate(0,0)"><g class="path" style="transform: scale(0.91); transform-origin: -137.26px 1.19473px; animation: 1.85185s linear -1.01852s infinite normal forwards running breath-f5c62092-7b0a-4011-968d-9e1f036dac24;"><path d="M43.87-41.13L43.87-41.13L36.45-28.83L36.45-28.83Q35.98-30.39 35.23-32.34L35.23-32.34L35.23-32.34Q34.49-34.30 33.40-36.00L33.40-36.00L33.40-36.00Q32.30-37.70 30.78-38.85L30.78-38.85L30.78-38.85Q29.26-40 27.27-40L27.27-40L27.27-40Q25.43-40 24.08-39.06L24.08-39.06L24.08-39.06Q22.73-38.13 21.80-36.62L21.80-36.62L21.80-36.62Q20.86-35.12 20.25-33.22L20.25-33.22L20.25-33.22Q19.65-31.33 19.32-29.39L19.32-29.39L19.32-29.39Q18.98-27.46 18.87-25.68L18.87-25.68L18.87-25.68Q18.75-23.91 18.75-22.62L18.75-22.62L18.75 0L5.51 0L5.51-45.12L10.59-45.12L15.94-34.61L15.94-34.61Q17.03-37.15 18.44-39.28L18.44-39.28L18.44-39.28Q19.84-41.41 21.68-42.95L21.68-42.95L21.68-42.95Q23.52-44.49 25.84-45.35L25.84-45.35L25.84-45.35Q28.16-46.21 31.09-46.21L31.09-46.21L31.09-46.21Q32.62-46.21 34.49-45.96L34.49-45.96L34.49-45.96Q36.37-45.70 38.16-45.10L38.16-45.10L38.16-45.10Q39.96-44.49 41.48-43.52L41.48-43.52L41.48-43.52Q43.01-42.54 43.87-41.13" fill="#ffffff" stroke="none" stroke-width="none" transform="translate(-161.95001220703125,24.299730936686192)" style="fill: rgb(255, 255, 255);"></path></g><g class="path" style="transform: scale(0.91); transform-origin: -93.355px 1.64473px; animation: 1.85185s linear -0.814815s infinite normal forwards running breath-f5c62092-7b0a-4011-968d-9e1f036dac24;"><path d="M59.06-21.41L59.06-21.41L59.06-21.41Q61.48-20.86 63.91-20.55L63.91-20.55L63.91-20.55Q66.33-20.23 68.79-20.23L68.79-20.23L68.79-20.23Q71.37-20.23 73.57-20.72L73.57-20.72L73.57-20.72Q75.78-21.21 77.40-22.36L77.40-22.36L77.40-22.36Q79.02-23.52 79.96-25.43L79.96-25.43L79.96-25.43Q80.90-27.34 80.90-30.20L80.90-30.20L80.90-30.20Q80.90-32.50 80.27-34.41L80.27-34.41L80.27-34.41Q79.65-36.33 78.42-37.70L78.42-37.70L78.42-37.70Q77.19-39.06 75.39-39.82L75.39-39.82L75.39-39.82Q73.59-40.59 71.21-40.59L71.21-40.59L71.21-40.59Q68.98-40.59 67.21-39.77L67.21-39.77L67.21-39.77Q65.43-38.95 64.08-37.56L64.08-37.56L64.08-37.56Q62.73-36.17 61.78-34.34L61.78-34.34L61.78-34.34Q60.82-32.50 60.20-30.51L60.20-30.51L60.20-30.51Q59.57-28.52 59.30-26.48L59.30-26.48L59.30-26.48Q59.02-24.45 59.02-22.66L59.02-22.66L59.02-22.66Q59.02-22.34 59.02-22.03L59.02-22.03L59.02-22.03Q59.02-21.72 59.06-21.41zM91.60-30.31L91.60-30.31L91.60-30.31Q91.60-27.54 90.70-25.37L90.70-25.37L90.70-25.37Q89.80-23.20 88.26-21.56L88.26-21.56L88.26-21.56Q86.72-19.92 84.69-18.79L84.69-18.79L84.69-18.79Q82.66-17.66 80.35-16.93L80.35-16.93L80.35-16.93Q78.05-16.21 75.61-15.90L75.61-15.90L75.61-15.90Q73.16-15.59 70.86-15.59L70.86-15.59L70.86-15.59Q67.93-15.59 65.08-16.00L65.08-16.00L65.08-16.00Q62.23-16.41 59.45-17.30L59.45-17.30L59.45-17.30Q59.88-14.73 60.82-12.40L60.82-12.40L60.82-12.40Q61.76-10.08 63.32-8.34L63.32-8.34L63.32-8.34Q64.88-6.60 67.17-5.59L67.17-5.59L67.17-5.59Q69.45-4.57 72.58-4.57L72.58-4.57L72.58-4.57Q74.65-4.57 76.52-5.20L76.52-5.20L76.52-5.20Q78.40-5.82 79.96-6.95L79.96-6.95L79.96-6.95Q81.52-8.09 82.71-9.65L82.71-9.65L82.71-9.65Q83.91-11.21 84.65-13.13L84.65-13.13L90.35-11.02L90.35-11.02Q89.06-7.93 86.82-5.68L86.82-5.68L86.82-5.68Q84.57-3.44 81.74-1.97L81.74-1.97L81.74-1.97Q78.91-0.51 75.72 0.20L75.72 0.20L75.72 0.20Q72.54 0.90 69.41 0.90L69.41 0.90L69.41 0.90Q64.26 0.90 59.88-0.84L59.88-0.84L59.88-0.84Q55.51-2.58 52.34-5.70L52.34-5.70L52.34-5.70Q49.18-8.83 47.38-13.16L47.38-13.16L47.38-13.16Q45.59-17.50 45.59-22.66L45.59-22.66L45.59-22.66Q45.59-27.81 47.38-32.15L47.38-32.15L47.38-32.15Q49.18-36.48 52.34-39.61L52.34-39.61L52.34-39.61Q55.51-42.73 59.88-44.47L59.88-44.47L59.88-44.47Q64.26-46.21 69.41-46.21L69.41-46.21L69.41-46.21Q71.91-46.21 74.53-45.86L74.53-45.86L74.53-45.86Q77.15-45.51 79.61-44.75L79.61-44.75L79.61-44.75Q82.07-43.98 84.26-42.77L84.26-42.77L84.26-42.77Q86.45-41.56 88.07-39.79L88.07-39.79L88.07-39.79Q89.69-38.01 90.64-35.66L90.64-35.66L90.64-35.66Q91.60-33.32 91.60-30.31" fill="#ffffff" stroke="none" stroke-width="none" transform="translate(-161.95001220703125,24.299730936686192)" style="fill: rgb(255, 245, 245);"></path></g><g class="path" style="transform: scale(0.91); transform-origin: -40.625px -6.03527px; animation: 1.85185s linear -0.611111s infinite normal forwards running breath-f5c62092-7b0a-4011-968d-9e1f036dac24;"><path d="M145.31-61.72L145.31 0L140.23 0L134.38-9.80L134.38-9.80Q133.52-7.34 132.01-5.35L132.01-5.35L132.01-5.35Q130.51-3.36 128.54-1.93L128.54-1.93L128.54-1.93Q126.56-0.51 124.20 0.27L124.20 0.27L124.20 0.27Q121.84 1.05 119.22 1.05L119.22 1.05L119.22 1.05Q114.06 1.05 110-0.78L110-0.78L110-0.78Q105.94-2.62 103.13-5.80L103.13-5.80L103.13-5.80Q100.31-8.98 98.83-13.28L98.83-13.28L98.83-13.28Q97.34-17.58 97.34-22.50L97.34-22.50L97.34-22.50Q97.34-27.42 98.83-31.72L98.83-31.72L98.83-31.72Q100.31-36.02 103.13-39.18L103.13-39.18L103.13-39.18Q105.94-42.34 110-44.18L110-44.18L110-44.18Q114.06-46.02 119.22-46.02L119.22-46.02L119.22-46.02Q123.16-46.02 126.46-44.49L126.46-44.49L126.46-44.49Q129.77-42.97 132.11-39.73L132.11-39.73L132.11-61.72L145.31-61.72zM132.03-22.50L132.03-22.50L132.03-22.50Q132.03-24.06 131.80-25.94L131.80-25.94L131.80-25.94Q131.56-27.81 131.05-29.73L131.05-29.73L131.05-29.73Q130.55-31.64 129.73-33.44L129.73-33.44L129.73-33.44Q128.91-35.23 127.71-36.64L127.71-36.64L127.71-36.64Q126.52-38.05 124.94-38.89L124.94-38.89L124.94-38.89Q123.36-39.73 121.33-39.73L121.33-39.73L121.33-39.73Q119.10-39.73 117.46-38.93L117.46-38.93L117.46-38.93Q115.82-38.13 114.65-36.78L114.65-36.78L114.65-36.78Q113.48-35.43 112.71-33.67L112.71-33.67L112.71-33.67Q111.95-31.91 111.52-30L111.52-30L111.52-30Q111.09-28.09 110.92-26.15L110.92-26.15L110.92-26.15Q110.74-24.22 110.74-22.50L110.74-22.50L110.74-22.50Q110.74-20.78 110.92-18.85L110.92-18.85L110.92-18.85Q111.09-16.91 111.52-15L111.52-15L111.52-15Q111.95-13.09 112.71-11.31L112.71-11.31L112.71-11.31Q113.48-9.53 114.65-8.18L114.65-8.18L114.65-8.18Q115.82-6.84 117.46-6.04L117.46-6.04L117.46-6.04Q119.10-5.23 121.33-5.23L121.33-5.23L121.33-5.23Q123.55-5.23 125.23-6.02L125.23-6.02L125.23-6.02Q126.91-6.80 128.11-8.14L128.11-8.14L128.11-8.14Q129.30-9.49 130.06-11.23L130.06-11.23L130.06-11.23Q130.82-12.97 131.25-14.90L131.25-14.90L131.25-14.90Q131.68-16.84 131.86-18.79L131.86-18.79L131.86-18.79Q132.03-20.74 132.03-22.50" fill="#ffffff" stroke="none" stroke-width="none" transform="translate(-161.95001220703125,24.299730936686192)" style="fill: rgb(255, 231, 231);"></path></g><g class="path" style="transform: scale(0.91); transform-origin: 14.77px 1.64473px; animation: 1.85185s linear -0.407407s infinite normal forwards running breath-f5c62092-7b0a-4011-968d-9e1f036dac24;"><path d="M167.19-21.41L167.19-21.41L167.19-21.41Q169.61-20.86 172.03-20.55L172.03-20.55L172.03-20.55Q174.45-20.23 176.91-20.23L176.91-20.23L176.91-20.23Q179.49-20.23 181.70-20.72L181.70-20.72L181.70-20.72Q183.91-21.21 185.53-22.36L185.53-22.36L185.53-22.36Q187.15-23.52 188.09-25.43L188.09-25.43L188.09-25.43Q189.02-27.34 189.02-30.20L189.02-30.20L189.02-30.20Q189.02-32.50 188.40-34.41L188.40-34.41L188.40-34.41Q187.77-36.33 186.54-37.70L186.54-37.70L186.54-37.70Q185.31-39.06 183.52-39.82L183.52-39.82L183.52-39.82Q181.72-40.59 179.34-40.59L179.34-40.59L179.34-40.59Q177.11-40.59 175.33-39.77L175.33-39.77L175.33-39.77Q173.55-38.95 172.21-37.56L172.21-37.56L172.21-37.56Q170.86-36.17 169.90-34.34L169.90-34.34L169.90-34.34Q168.95-32.50 168.32-30.51L168.32-30.51L168.32-30.51Q167.70-28.52 167.42-26.48L167.42-26.48L167.42-26.48Q167.15-24.45 167.15-22.66L167.15-22.66L167.15-22.66Q167.15-22.34 167.15-22.03L167.15-22.03L167.15-22.03Q167.15-21.72 167.19-21.41zM199.73-30.31L199.73-30.31L199.73-30.31Q199.73-27.54 198.83-25.37L198.83-25.37L198.83-25.37Q197.93-23.20 196.39-21.56L196.39-21.56L196.39-21.56Q194.84-19.92 192.81-18.79L192.81-18.79L192.81-18.79Q190.78-17.66 188.48-16.93L188.48-16.93L188.48-16.93Q186.17-16.21 183.73-15.90L183.73-15.90L183.73-15.90Q181.29-15.59 178.98-15.59L178.98-15.59L178.98-15.59Q176.05-15.59 173.20-16.00L173.20-16.00L173.20-16.00Q170.35-16.41 167.58-17.30L167.58-17.30L167.58-17.30Q168.01-14.73 168.95-12.40L168.95-12.40L168.95-12.40Q169.88-10.08 171.45-8.34L171.45-8.34L171.45-8.34Q173.01-6.60 175.29-5.59L175.29-5.59L175.29-5.59Q177.58-4.57 180.70-4.57L180.70-4.57L180.70-4.57Q182.77-4.57 184.65-5.20L184.65-5.20L184.65-5.20Q186.52-5.82 188.09-6.95L188.09-6.95L188.09-6.95Q189.65-8.09 190.84-9.65L190.84-9.65L190.84-9.65Q192.03-11.21 192.77-13.13L192.77-13.13L198.48-11.02L198.48-11.02Q197.19-7.93 194.94-5.68L194.94-5.68L194.94-5.68Q192.70-3.44 189.86-1.97L189.86-1.97L189.86-1.97Q187.03-0.51 183.85 0.20L183.85 0.20L183.85 0.20Q180.66 0.90 177.54 0.90L177.54 0.90L177.54 0.90Q172.38 0.90 168.01-0.84L168.01-0.84L168.01-0.84Q163.63-2.58 160.47-5.70L160.47-5.70L160.47-5.70Q157.30-8.83 155.51-13.16L155.51-13.16L155.51-13.16Q153.71-17.50 153.71-22.66L153.71-22.66L153.71-22.66Q153.71-27.81 155.51-32.15L155.51-32.15L155.51-32.15Q157.30-36.48 160.47-39.61L160.47-39.61L160.47-39.61Q163.63-42.73 168.01-44.47L168.01-44.47L168.01-44.47Q172.38-46.21 177.54-46.21L177.54-46.21L177.54-46.21Q180.04-46.21 182.66-45.86L182.66-45.86L182.66-45.86Q185.27-45.51 187.73-44.75L187.73-44.75L187.73-44.75Q190.20-43.98 192.38-42.77L192.38-42.77L192.38-42.77Q194.57-41.56 196.19-39.79L196.19-39.79L196.19-39.79Q197.81-38.01 198.77-35.66L198.77-35.66L198.77-35.66Q199.73-33.32 199.73-30.31" fill="#ffffff" stroke="none" stroke-width="none" transform="translate(-161.95001220703125,24.299730936686192)" style="fill: rgb(255, 219, 219);"></path></g><g class="path" style="transform: scale(0.91); transform-origin: 66.41px 1.64473px; animation: 1.85185s linear -0.203704s infinite normal forwards running breath-f5c62092-7b0a-4011-968d-9e1f036dac24;"><path d="M218.83-21.41L218.83-21.41L218.83-21.41Q221.25-20.86 223.67-20.55L223.67-20.55L223.67-20.55Q226.09-20.23 228.55-20.23L228.55-20.23L228.55-20.23Q231.13-20.23 233.34-20.72L233.34-20.72L233.34-20.72Q235.55-21.21 237.17-22.36L237.17-22.36L237.17-22.36Q238.79-23.52 239.73-25.43L239.73-25.43L239.73-25.43Q240.66-27.34 240.66-30.20L240.66-30.20L240.66-30.20Q240.66-32.50 240.04-34.41L240.04-34.41L240.04-34.41Q239.41-36.33 238.18-37.70L238.18-37.70L238.18-37.70Q236.95-39.06 235.16-39.82L235.16-39.82L235.16-39.82Q233.36-40.59 230.98-40.59L230.98-40.59L230.98-40.59Q228.75-40.59 226.97-39.77L226.97-39.77L226.97-39.77Q225.20-38.95 223.85-37.56L223.85-37.56L223.85-37.56Q222.50-36.17 221.54-34.34L221.54-34.34L221.54-34.34Q220.59-32.50 219.96-30.51L219.96-30.51L219.96-30.51Q219.34-28.52 219.06-26.48L219.06-26.48L219.06-26.48Q218.79-24.45 218.79-22.66L218.79-22.66L218.79-22.66Q218.79-22.34 218.79-22.03L218.79-22.03L218.79-22.03Q218.79-21.72 218.83-21.41zM251.37-30.31L251.37-30.31L251.37-30.31Q251.37-27.54 250.47-25.37L250.47-25.37L250.47-25.37Q249.57-23.20 248.03-21.56L248.03-21.56L248.03-21.56Q246.48-19.92 244.45-18.79L244.45-18.79L244.45-18.79Q242.42-17.66 240.12-16.93L240.12-16.93L240.12-16.93Q237.81-16.21 235.37-15.90L235.37-15.90L235.37-15.90Q232.93-15.59 230.63-15.59L230.63-15.59L230.63-15.59Q227.70-15.59 224.84-16.00L224.84-16.00L224.84-16.00Q221.99-16.41 219.22-17.30L219.22-17.30L219.22-17.30Q219.65-14.73 220.59-12.40L220.59-12.40L220.59-12.40Q221.52-10.08 223.09-8.34L223.09-8.34L223.09-8.34Q224.65-6.60 226.93-5.59L226.93-5.59L226.93-5.59Q229.22-4.57 232.34-4.57L232.34-4.57L232.34-4.57Q234.41-4.57 236.29-5.20L236.29-5.20L236.29-5.20Q238.16-5.82 239.73-6.95L239.73-6.95L239.73-6.95Q241.29-8.09 242.48-9.65L242.48-9.65L242.48-9.65Q243.67-11.21 244.41-13.13L244.41-13.13L250.12-11.02L250.12-11.02Q248.83-7.93 246.58-5.68L246.58-5.68L246.58-5.68Q244.34-3.44 241.50-1.97L241.50-1.97L241.50-1.97Q238.67-0.51 235.49 0.20L235.49 0.20L235.49 0.20Q232.30 0.90 229.18 0.90L229.18 0.90L229.18 0.90Q224.02 0.90 219.65-0.84L219.65-0.84L219.65-0.84Q215.27-2.58 212.11-5.70L212.11-5.70L212.11-5.70Q208.95-8.83 207.15-13.16L207.15-13.16L207.15-13.16Q205.35-17.50 205.35-22.66L205.35-22.66L205.35-22.66Q205.35-27.81 207.15-32.15L207.15-32.15L207.15-32.15Q208.95-36.48 212.11-39.61L212.11-39.61L212.11-39.61Q215.27-42.73 219.65-44.47L219.65-44.47L219.65-44.47Q224.02-46.21 229.18-46.21L229.18-46.21L229.18-46.21Q231.68-46.21 234.30-45.86L234.30-45.86L234.30-45.86Q236.91-45.51 239.38-44.75L239.38-44.75L239.38-44.75Q241.84-43.98 244.02-42.77L244.02-42.77L244.02-42.77Q246.21-41.56 247.83-39.79L247.83-39.79L247.83-39.79Q249.45-38.01 250.41-35.66L250.41-35.66L250.41-35.66Q251.37-33.32 251.37-30.31" fill="#ffffff" stroke="none" stroke-width="none" transform="translate(-161.95001220703125,24.299730936686192)" style="fill: rgb(255, 211, 211);"></path></g><g class="path" style="transform: scale(0.91); transform-origin: 132.56px 5.99973px; animation: 1.85185s linear 0s infinite normal forwards running breath-f5c62092-7b0a-4011-968d-9e1f036dac24;"><path d="M329.41-26.33L329.41-26.33L329.41-26.33Q329.41-21.68 328.32-16.64L328.32-16.64L328.32-16.64Q327.23-11.60 325.25-6.82L325.25-6.82L325.25-6.82Q323.28-2.03 320.51 2.23L320.51 2.23L320.51 2.23Q317.73 6.48 314.34 9.61L314.34 9.61L309.38 6.91L309.38 6.91Q310.51 4.88 311.45 2.34L311.45 2.34L311.45 2.34Q312.38-0.20 313.16-3.01L313.16-3.01L313.16-3.01Q313.95-5.82 314.53-8.79L314.53-8.79L314.53-8.79Q315.12-11.76 315.53-14.71L315.53-14.71L315.53-14.71Q315.94-17.66 316.13-20.43L316.13-20.43L316.13-20.43Q316.33-23.20 316.33-25.63L316.33-25.63L316.33-25.63Q316.33-26.99 316.25-28.59L316.25-28.59L316.25-28.59Q316.17-30.20 315.92-31.80L315.92-31.80L315.92-31.80Q315.66-33.40 315.16-34.86L315.16-34.86L315.16-34.86Q314.65-36.33 313.77-37.48L313.77-37.48L313.77-37.48Q312.89-38.63 311.58-39.32L311.58-39.32L311.58-39.32Q310.27-40 308.44-40L308.44-40L308.44-40Q306.64-40 305.37-39.04L305.37-39.04L305.37-39.04Q304.10-38.09 303.20-36.56L303.20-36.56L303.20-36.56Q302.30-35.04 301.78-33.13L301.78-33.13L301.78-33.13Q301.25-31.21 300.98-29.28L300.98-29.28L300.98-29.28Q300.70-27.34 300.61-25.59L300.61-25.59L300.61-25.59Q300.51-23.83 300.51-22.62L300.51-22.62L300.51 0L287.34 0L287.34-21.02L287.34-21.02Q287.34-22.38 287.38-24.32L287.38-24.32L287.38-24.32Q287.42-26.25 287.29-28.36L287.29-28.36L287.29-28.36Q287.15-30.47 286.78-32.56L286.78-32.56L286.78-32.56Q286.41-34.65 285.61-36.29L285.61-36.29L285.61-36.29Q284.80-37.93 283.44-38.96L283.44-38.96L283.44-38.96Q282.07-40 280-40L280-40L280-40Q278.24-40 277.05-39.02L277.05-39.02L277.05-39.02Q275.86-38.05 275.06-36.50L275.06-36.50L275.06-36.50Q274.26-34.96 273.81-33.03L273.81-33.03L273.81-33.03Q273.36-31.09 273.14-29.16L273.14-29.16L273.14-29.16Q272.93-27.23 272.89-25.49L272.89-25.49L272.89-25.49Q272.85-23.75 272.85-22.62L272.85-22.62L272.85 0L259.61 0L259.61-45.12L264.69-45.12L269.53-34.61L269.53-34.61Q271.17-40.08 274.71-43.14L274.71-43.14L274.71-43.14Q278.24-46.21 284.10-46.21L284.10-46.21L284.10-46.21Q289.38-46.21 292.85-44.02L292.85-44.02L292.85-44.02Q296.33-41.84 298.32-36.91L298.32-36.91L298.32-36.91Q299.45-39.06 300.84-40.78L300.84-40.78L300.84-40.78Q302.23-42.50 303.93-43.71L303.93-43.71L303.93-43.71Q305.63-44.92 307.70-45.57L307.70-45.57L307.70-45.57Q309.77-46.21 312.27-46.21L312.27-46.21L312.27-46.21Q316.88-46.21 320.14-44.71L320.14-44.71L320.14-44.71Q323.40-43.20 325.47-40.55L325.47-40.55L325.47-40.55Q327.54-37.89 328.48-34.24L328.48-34.24L328.48-34.24Q329.41-30.59 329.41-26.33" fill="#ffffff" stroke="none" stroke-width="none" transform="translate(-161.95001220703125,24.299730936686192)" style="fill: rgb(255, 255, 255);"></path></g></g>
</g>
</g>
<style id="breath-f5c62092-7b0a-4011-968d-9e1f036dac24" data-anikit="">@keyframes breath-f5c62092-7b0a-4011-968d-9e1f036dac24
{
  0% {
    animation-timing-function: cubic-bezier(0.9647,0.2413,-0.0705,0.7911);
    transform: scale(0.9099999999999999);
  }
  51% {
    animation-timing-function: cubic-bezier(0.9226,0.2631,-0.0308,0.7628);
    transform: scale(1.02994);
  }
  100% {
    transform: scale(0.9099999999999999);
  }
}</style></svg>