<?xml version="1.0" encoding="utf-8"?>
<svg xmlns="http://www.w3.org/2000/svg" style="margin: auto; background: none; display: block; shape-rendering: auto;" width="280" height="250" preserveAspectRatio="xMidYMid">
<style type="text/css">
  text {
    text-anchor: middle; font-size: 80px; opacity: 0;
  }
</style>
<g style="transform-origin:140px 125px;transform:scale(1)">
<g transform="translate(140,125)">
  <g transform="translate(0,0)"><g class="path" style="transform: scale(0.91); transform-origin: -78.61px 1.96805px; animation: 1.85185s linear -0.916667s infinite normal forwards running breath-f5c62092-7b0a-4011-968d-9e1f036dac24;"><path d="M44.34-14.41L44.34-14.41L44.34-14.41Q44.34-11.45 43.48-9.14L43.48-9.14L43.48-9.14Q42.62-6.84 41.13-5.14L41.13-5.14L41.13-5.14Q39.65-3.44 37.62-2.29L37.62-2.29L37.62-2.29Q35.59-1.13 33.26-0.43L33.26-0.43L33.26-0.43Q30.94 0.27 28.40 0.59L28.40 0.59L28.40 0.59Q25.86 0.90 23.36 0.90L23.36 0.90L23.36 0.90Q20 0.90 17.42 0.47L17.42 0.47L17.42 0.47Q14.84 0.04 12.50-0.92L12.50-0.92L12.50-0.92Q10.16-1.88 7.83-3.40L7.83-3.40L7.83-3.40Q5.51-4.92 2.66-7.11L2.66-7.11L10.35-13.40L10.35-13.40Q11.41-11.41 13.14-9.79L13.14-9.79L13.14-9.79Q14.88-8.16 16.76-6.99L16.76-6.99L16.76-6.99Q18.63-5.82 20.39-5.20L20.39-5.20L20.39-5.20Q22.15-4.57 23.24-4.57L23.24-4.57L23.24-4.57Q24.14-4.57 25.27-4.63L25.27-4.63L25.27-4.63Q26.41-4.69 27.58-4.86L27.58-4.86L27.58-4.86Q28.75-5.04 29.88-5.39L29.88-5.39L29.88-5.39Q31.02-5.74 31.89-6.35L31.89-6.35L31.89-6.35Q32.77-6.95 33.30-7.87L33.30-7.87L33.30-7.87Q33.83-8.79 33.83-10.08L33.83-10.08L33.83-10.08Q33.83-11.41 33.14-12.40L33.14-12.40L33.14-12.40Q32.46-13.40 31.37-14.14L31.37-14.14L31.37-14.14Q30.27-14.88 28.87-15.39L28.87-15.39L28.87-15.39Q27.46-15.90 26.04-16.29L26.04-16.29L26.04-16.29Q24.61-16.68 23.28-16.97L23.28-16.97L23.28-16.97Q21.95-17.27 20.98-17.54L20.98-17.54L20.98-17.54Q19.18-18.05 17.19-18.57L17.19-18.57L17.19-18.57Q15.20-19.10 13.24-19.79L13.24-19.79L13.24-19.79Q11.29-20.47 9.51-21.41L9.51-21.41L9.51-21.41Q7.73-22.34 6.39-23.65L6.39-23.65L6.39-23.65Q5.04-24.96 4.24-26.74L4.24-26.74L4.24-26.74Q3.44-28.52 3.44-30.90L3.44-30.90L3.44-30.90Q3.44-35.27 5.18-38.22L5.18-38.22L5.18-38.22Q6.91-41.17 9.77-42.95L9.77-42.95L9.77-42.95Q12.62-44.73 16.25-45.47L16.25-45.47L16.25-45.47Q19.88-46.21 23.63-46.21L23.63-46.21L23.63-46.21Q26.21-46.21 29.06-45.68L29.06-45.68L29.06-45.68Q31.91-45.16 34.61-44.12L34.61-44.12L34.61-44.12Q37.30-43.09 39.65-41.60L39.65-41.60L39.65-41.60Q41.99-40.12 43.55-38.20L43.55-38.20L35.86-31.88L35.86-31.88Q35-34.22 33.61-35.90L33.61-35.90L33.61-35.90Q32.23-37.58 30.61-38.65L30.61-38.65L30.61-38.65Q28.98-39.73 27.29-40.23L27.29-40.23L27.29-40.23Q25.59-40.74 24.14-40.74L24.14-40.74L24.14-40.74Q22.73-40.74 20.98-40.63L20.98-40.63L20.98-40.63Q19.22-40.51 17.68-39.96L17.68-39.96L17.68-39.96Q16.13-39.41 15.06-38.30L15.06-38.30L15.06-38.30Q13.98-37.19 13.98-35.23L13.98-35.23L13.98-35.23Q13.98-33.83 14.63-32.83L14.63-32.83L14.63-32.83Q15.27-31.84 16.33-31.11L16.33-31.11L16.33-31.11Q17.38-30.39 18.73-29.90L18.73-29.90L18.73-29.90Q20.08-29.41 21.48-29.04L21.48-29.04L21.48-29.04Q22.89-28.67 24.22-28.40L24.22-28.40L24.22-28.40Q25.55-28.13 26.60-27.81L26.60-27.81L26.60-27.81Q28.40-27.30 30.41-26.78L30.41-26.78L30.41-26.78Q32.42-26.25 34.38-25.57L34.38-25.57L34.38-25.57Q36.33-24.88 38.14-23.96L38.14-23.96L38.14-23.96Q39.96-23.05 41.33-21.72L41.33-21.72L41.33-21.72Q42.70-20.39 43.52-18.61L43.52-18.61L43.52-18.61Q44.34-16.84 44.34-14.41" fill="#ffffff" stroke="none" stroke-width="none" transform="translate(-102.11001586914062,24.623047332763672)" style="fill: rgb(255, 255, 255);"></path></g><g class="path" style="transform: scale(0.91); transform-origin: -26.385px -1.43195px; animation: 1.85185s linear -0.611111s infinite normal forwards running breath-f5c62092-7b0a-4011-968d-9e1f036dac24;"><path d="M98.79-25.86L98.79-25.86L98.79-25.86Q98.79-21.29 97.68-16.33L97.68-16.33L97.68-16.33Q96.56-11.37 94.57-6.60L94.57-6.60L94.57-6.60Q92.58-1.84 89.80 2.36L89.80 2.36L89.80 2.36Q87.03 6.56 83.71 9.61L83.71 9.61L78.75 6.91L78.75 6.91Q79.80 4.96 80.74 2.54L80.74 2.54L80.74 2.54Q81.68 0.12 82.44-2.60L82.44-2.60L82.44-2.60Q83.20-5.31 83.81-8.20L83.81-8.20L83.81-8.20Q84.41-11.09 84.82-13.93L84.82-13.93L84.82-13.93Q85.23-16.76 85.45-19.43L85.45-19.43L85.45-19.43Q85.66-22.11 85.66-24.41L85.66-24.41L85.66-24.41Q85.66-25.94 85.55-27.68L85.55-27.68L85.55-27.68Q85.43-29.41 85.06-31.15L85.06-31.15L85.06-31.15Q84.69-32.89 84.06-34.49L84.06-34.49L84.06-34.49Q83.44-36.09 82.40-37.30L82.40-37.30L82.40-37.30Q81.37-38.52 79.90-39.26L79.90-39.26L79.90-39.26Q78.44-40 76.45-40L76.45-40L76.45-40Q74.49-40 72.97-39.12L72.97-39.12L72.97-39.12Q71.45-38.24 70.27-36.82L70.27-36.82L70.27-36.82Q69.10-35.39 68.26-33.55L68.26-33.55L68.26-33.55Q67.42-31.72 66.89-29.79L66.89-29.79L66.89-29.79Q66.37-27.85 66.13-25.98L66.13-25.98L66.13-25.98Q65.90-24.10 65.90-22.62L65.90-22.62L65.90 0L52.66 0L52.66-61.72L65.86-61.72L65.86-38.48L65.86-38.48Q68.40-42.19 72.09-44.20L72.09-44.20L72.09-44.20Q75.78-46.21 80.27-46.21L80.27-46.21L80.27-46.21Q84.96-46.21 88.44-44.69L88.44-44.69L88.44-44.69Q91.91-43.16 94.22-40.45L94.22-40.45L94.22-40.45Q96.52-37.73 97.66-34.00L97.66-34.00L97.66-34.00Q98.79-30.27 98.79-25.86" fill="#ffffff" stroke="none" stroke-width="none" transform="translate(-102.11001586914062,24.623047332763672)" style="fill: rgb(255, 245, 245);"></path></g><g class="path" style="transform: scale(0.91); transform-origin: 27.87px 1.96805px; animation: 1.85185s linear -0.305556s infinite normal forwards running breath-f5c62092-7b0a-4011-968d-9e1f036dac24;"><path d="M155.16-22.66L155.16-22.66L155.16-22.66Q155.16-19.14 154.22-16.05L154.22-16.05L154.22-16.05Q153.28-12.97 151.62-10.35L151.62-10.35L151.62-10.35Q149.96-7.73 147.62-5.64L147.62-5.64L147.62-5.64Q145.27-3.55 142.48-2.11L142.48-2.11L142.48-2.11Q139.69-0.66 136.50 0.12L136.50 0.12L136.50 0.12Q133.32 0.90 129.96 0.90L129.96 0.90L129.96 0.90Q126.60 0.90 123.44 0.12L123.44 0.12L123.44 0.12Q120.27-0.66 117.48-2.11L117.48-2.11L117.48-2.11Q114.69-3.55 112.34-5.64L112.34-5.64L112.34-5.64Q110-7.73 108.34-10.35L108.34-10.35L108.34-10.35Q106.68-12.97 105.74-16.07L105.74-16.07L105.74-16.07Q104.80-19.18 104.80-22.66L104.80-22.66L104.80-22.66Q104.80-26.13 105.74-29.24L105.74-29.24L105.74-29.24Q106.68-32.34 108.34-34.96L108.34-34.96L108.34-34.96Q110-37.58 112.34-39.67L112.34-39.67L112.34-39.67Q114.69-41.76 117.48-43.20L117.48-43.20L117.48-43.20Q120.27-44.65 123.44-45.43L123.44-45.43L123.44-45.43Q126.60-46.21 129.96-46.21L129.96-46.21L129.96-46.21Q133.32-46.21 136.50-45.43L136.50-45.43L136.50-45.43Q139.69-44.65 142.48-43.20L142.48-43.20L142.48-43.20Q145.27-41.76 147.62-39.67L147.62-39.67L147.62-39.67Q149.96-37.58 151.62-34.96L151.62-34.96L151.62-34.96Q153.28-32.34 154.22-29.24L154.22-29.24L154.22-29.24Q155.16-26.13 155.16-22.66zM141.72-22.66L141.72-22.66L141.72-22.66Q141.72-24.53 141.50-26.62L141.50-26.62L141.50-26.62Q141.29-28.71 140.78-30.72L140.78-30.72L140.78-30.72Q140.27-32.73 139.39-34.59L139.39-34.59L139.39-34.59Q138.52-36.45 137.23-37.83L137.23-37.83L137.23-37.83Q135.94-39.22 134.14-40.06L134.14-40.06L134.14-40.06Q132.34-40.90 129.96-40.90L129.96-40.90L129.96-40.90Q127.70-40.90 125.94-40.04L125.94-40.04L125.94-40.04Q124.18-39.18 122.87-37.75L122.87-37.75L122.87-37.75Q121.56-36.33 120.68-34.45L120.68-34.45L120.68-34.45Q119.80-32.58 119.26-30.57L119.26-30.57L119.26-30.57Q118.71-28.55 118.48-26.50L118.48-26.50L118.48-26.50Q118.24-24.45 118.24-22.66L118.24-22.66L118.24-22.66Q118.24-20.86 118.48-18.81L118.48-18.81L118.48-18.81Q118.71-16.76 119.26-14.73L119.26-14.73L119.26-14.73Q119.80-12.70 120.68-10.84L120.68-10.84L120.68-10.84Q121.56-8.98 122.87-7.56L122.87-7.56L122.87-7.56Q124.18-6.13 125.94-5.27L125.94-5.27L125.94-5.27Q127.70-4.41 129.96-4.41L129.96-4.41L129.96-4.41Q132.30-4.41 134.10-5.25L134.10-5.25L134.10-5.25Q135.90-6.09 137.21-7.50L137.21-7.50L137.21-7.50Q138.52-8.91 139.38-10.74L139.38-10.74L139.38-10.74Q140.23-12.58 140.76-14.61L140.76-14.61L140.76-14.61Q141.29-16.64 141.50-18.71L141.50-18.71L141.50-18.71Q141.72-20.78 141.72-22.66" fill="#ffffff" stroke="none" stroke-width="none" transform="translate(-102.11001586914062,24.623047332763672)" style="fill: rgb(255, 231, 231);"></path></g><g class="path" style="transform: scale(0.91); transform-origin: 81.76px 1.96805px; animation: 1.85185s linear 0s infinite normal forwards running breath-f5c62092-7b0a-4011-968d-9e1f036dac24;"><path d="M174.34-21.41L174.34-21.41L174.34-21.41Q176.76-20.86 179.18-20.55L179.18-20.55L179.18-20.55Q181.60-20.23 184.06-20.23L184.06-20.23L184.06-20.23Q186.64-20.23 188.85-20.72L188.85-20.72L188.85-20.72Q191.05-21.21 192.68-22.36L192.68-22.36L192.68-22.36Q194.30-23.52 195.23-25.43L195.23-25.43L195.23-25.43Q196.17-27.34 196.17-30.20L196.17-30.20L196.17-30.20Q196.17-32.50 195.55-34.41L195.55-34.41L195.55-34.41Q194.92-36.33 193.69-37.70L193.69-37.70L193.69-37.70Q192.46-39.06 190.66-39.82L190.66-39.82L190.66-39.82Q188.87-40.59 186.48-40.59L186.48-40.59L186.48-40.59Q184.26-40.59 182.48-39.77L182.48-39.77L182.48-39.77Q180.70-38.95 179.36-37.56L179.36-37.56L179.36-37.56Q178.01-36.17 177.05-34.34L177.05-34.34L177.05-34.34Q176.09-32.50 175.47-30.51L175.47-30.51L175.47-30.51Q174.84-28.52 174.57-26.48L174.57-26.48L174.57-26.48Q174.30-24.45 174.30-22.66L174.30-22.66L174.30-22.66Q174.30-22.34 174.30-22.03L174.30-22.03L174.30-22.03Q174.30-21.72 174.34-21.41zM206.88-30.31L206.88-30.31L206.88-30.31Q206.88-27.54 205.98-25.37L205.98-25.37L205.98-25.37Q205.08-23.20 203.54-21.56L203.54-21.56L203.54-21.56Q201.99-19.92 199.96-18.79L199.96-18.79L199.96-18.79Q197.93-17.66 195.63-16.93L195.63-16.93L195.63-16.93Q193.32-16.21 190.88-15.90L190.88-15.90L190.88-15.90Q188.44-15.59 186.13-15.59L186.13-15.59L186.13-15.59Q183.20-15.59 180.35-16.00L180.35-16.00L180.35-16.00Q177.50-16.41 174.73-17.30L174.73-17.30L174.73-17.30Q175.16-14.73 176.09-12.40L176.09-12.40L176.09-12.40Q177.03-10.08 178.59-8.34L178.59-8.34L178.59-8.34Q180.16-6.60 182.44-5.59L182.44-5.59L182.44-5.59Q184.73-4.57 187.85-4.57L187.85-4.57L187.85-4.57Q189.92-4.57 191.80-5.20L191.80-5.20L191.80-5.20Q193.67-5.82 195.23-6.95L195.23-6.95L195.23-6.95Q196.80-8.09 197.99-9.65L197.99-9.65L197.99-9.65Q199.18-11.21 199.92-13.13L199.92-13.13L205.63-11.02L205.63-11.02Q204.34-7.93 202.09-5.68L202.09-5.68L202.09-5.68Q199.84-3.44 197.01-1.97L197.01-1.97L197.01-1.97Q194.18-0.51 191.00 0.20L191.00 0.20L191.00 0.20Q187.81 0.90 184.69 0.90L184.69 0.90L184.69 0.90Q179.53 0.90 175.16-0.84L175.16-0.84L175.16-0.84Q170.78-2.58 167.62-5.70L167.62-5.70L167.62-5.70Q164.45-8.83 162.66-13.16L162.66-13.16L162.66-13.16Q160.86-17.50 160.86-22.66L160.86-22.66L160.86-22.66Q160.86-27.81 162.66-32.15L162.66-32.15L162.66-32.15Q164.45-36.48 167.62-39.61L167.62-39.61L167.62-39.61Q170.78-42.73 175.16-44.47L175.16-44.47L175.16-44.47Q179.53-46.21 184.69-46.21L184.69-46.21L184.69-46.21Q187.19-46.21 189.80-45.86L189.80-45.86L189.80-45.86Q192.42-45.51 194.88-44.75L194.88-44.75L194.88-44.75Q197.34-43.98 199.53-42.77L199.53-42.77L199.53-42.77Q201.72-41.56 203.34-39.79L203.34-39.79L203.34-39.79Q204.96-38.01 205.92-35.66L205.92-35.66L205.92-35.66Q206.88-33.32 206.88-30.31" fill="#ffffff" stroke="none" stroke-width="none" transform="translate(-102.11001586914062,24.623047332763672)" style="fill: rgb(255, 219, 219);"></path></g></g>
</g>
</g>
<style id="breath-f5c62092-7b0a-4011-968d-9e1f036dac24" data-anikit="">@keyframes breath-f5c62092-7b0a-4011-968d-9e1f036dac24
{
  0% {
    animation-timing-function: cubic-bezier(0.9647,0.2413,-0.0705,0.7911);
    transform: scale(0.9099999999999999);
  }
  51% {
    animation-timing-function: cubic-bezier(0.9226,0.2631,-0.0308,0.7628);
    transform: scale(1.02994);
  }
  100% {
    transform: scale(0.9099999999999999);
  }
}</style></svg>