<?xml version="1.0" encoding="utf-8"?>
<svg xmlns="http://www.w3.org/2000/svg" style="margin: auto; background: rgb(255, 251, 243); display: block; shape-rendering: auto;" width="280" height="65" preserveAspectRatio="xMidYMid">
<style type="text/css">
  text {
    text-anchor: middle; font-size: 41px; opacity: 0;
  }
</style>
<g style="transform-origin:140px 32.5px;transform:scale(1)">
<g transform="translate(140,32.5)">
  <g transform="translate(0,0)"><g class="path" style="transform: scale(0.91); transform-origin: -34.675px 1.52435px; animation: 1s linear -0.495s infinite normal forwards running breath-671c1c9b-6f58-44f2-87ce-f553e310d113;"><path d="M17.26-14.05L13.43 0L7.35 0L1.02-23.12L7.79-23.12L11.75-6.91L15.05-23.12L21.14-23.12L25.18-6.47L29.09-23.12L33.77-23.12L26.77 0L20.68 0L17.26-14.05" fill="#51cacc" stroke="none" stroke-width="none" transform="translate(-52.07000732421875,13.084353942871093)" style="fill: rgb(81, 202, 204);"></path></g><g class="path" style="transform: scale(0.91); transform-origin: -5.71501px 6.85935px; animation: 1s linear -0.33s infinite normal forwards running breath-671c1c9b-6f58-44f2-87ce-f553e310d113;"><path d="M53.47-23.12L58.16-23.12L49.75-2.78L49.75-2.78Q48.31 0.70 46.54 4.11L46.54 4.11L46.54 4.11Q44.76 7.53 42.70 10.67L42.70 10.67L40.06 9.07L40.06 9.07Q40.56 8.17 41.24 6.99L41.24 6.99L41.24 6.99Q41.92 5.81 42.58 4.54L42.58 4.54L42.58 4.54Q43.24 3.28 43.80 2.05L43.80 2.05L43.80 2.05Q44.36 0.82 44.66-0.20L44.66-0.20L34.55-23.12L41.32-23.12L48.19-7.49L53.47-23.12" fill="#51cacc" stroke="none" stroke-width="none" transform="translate(-52.07000732421875,13.084353942871093)" style="fill: rgb(157, 248, 113);"></path></g><g class="path" style="transform: scale(0.91); transform-origin: 21.2px -2.46065px; animation: 1s linear -0.165s infinite normal forwards running breath-671c1c9b-6f58-44f2-87ce-f553e310d113;"><path d="M85.56-11.53L85.56-11.53L85.56-11.53Q85.56-9.01 84.80-6.81L84.80-6.81L84.80-6.81Q84.04-4.60 82.60-2.97L82.60-2.97L82.60-2.97Q81.16-1.34 79.08-0.40L79.08-0.40L79.08-0.40Q77.00 0.54 74.35 0.54L74.35 0.54L74.35 0.54Q73.01 0.54 71.80 0.14L71.80 0.14L71.80 0.14Q70.59-0.26 69.58-0.99L69.58-0.99L69.58-0.99Q68.57-1.72 67.80-2.74L67.80-2.74L67.80-2.74Q67.03-3.76 66.58-5.02L66.58-5.02L63.58 0L60.98 0L60.98-31.63L67.75-31.63L67.75-20.36L67.75-20.36Q68.95-22.02 70.64-22.80L70.64-22.80L70.64-22.80Q72.33-23.58 74.35-23.58L74.35-23.58L74.35-23.58Q77.00-23.58 79.08-22.64L79.08-22.64L79.08-22.64Q81.16-21.70 82.60-20.08L82.60-20.08L82.60-20.08Q84.04-18.46 84.80-16.26L84.80-16.26L84.80-16.26Q85.56-14.05 85.56-11.53zM78.70-11.53L78.70-11.53L78.70-11.53Q78.70-12.41 78.61-13.40L78.61-13.40L78.61-13.40Q78.52-14.39 78.30-15.38L78.30-15.38L78.30-15.38Q78.08-16.36 77.69-17.26L77.69-17.26L77.69-17.26Q77.30-18.16 76.69-18.85L76.69-18.85L76.69-18.85Q76.09-19.54 75.25-19.95L75.25-19.95L75.25-19.95Q74.41-20.36 73.27-20.36L73.27-20.36L73.27-20.36Q72.23-20.36 71.42-19.93L71.42-19.93L71.42-19.93Q70.61-19.50 70.00-18.78L70.00-18.78L70.00-18.78Q69.39-18.06 68.97-17.14L68.97-17.14L68.97-17.14Q68.55-16.22 68.29-15.23L68.29-15.23L68.29-15.23Q68.03-14.25 67.91-13.29L67.91-13.29L67.91-13.29Q67.79-12.33 67.79-11.53L67.79-11.53L67.79-11.53Q67.79-10.63 67.88-9.63L67.88-9.63L67.88-9.63Q67.97-8.63 68.19-7.64L68.19-7.64L68.19-7.64Q68.41-6.65 68.80-5.76L68.80-5.76L68.80-5.76Q69.19-4.86 69.80-4.17L69.80-4.17L69.80-4.17Q70.41-3.48 71.26-3.08L71.26-3.08L71.26-3.08Q72.11-2.68 73.27-2.68L73.27-2.68L73.27-2.68Q74.39-2.68 75.24-3.09L75.24-3.09L75.24-3.09Q76.09-3.50 76.69-4.19L76.69-4.19L76.69-4.19Q77.30-4.88 77.69-5.80L77.69-5.80L77.69-5.80Q78.08-6.71 78.30-7.69L78.30-7.69L78.30-7.69Q78.52-8.67 78.61-9.66L78.61-9.66L78.61-9.66Q78.70-10.65 78.70-11.53" fill="#51cacc" stroke="none" stroke-width="none" transform="translate(-52.07000732421875,13.084353942871093)" style="fill: rgb(224, 255, 119);"></path></g><g class="path" style="transform: scale(0.91); transform-origin: 44.095px -2.73065px; animation: 1s linear 0s infinite normal forwards running breath-671c1c9b-6f58-44f2-87ce-f553e310d113;"><path d="M98.16-20.44L98.16 0L91.37 0L91.37-20.44L87.17-20.44L87.17-23.12L91.37-23.12L91.37-31.63L98.16-31.63L98.16-23.12L105.16-23.12L105.16-20.44L98.16-20.44" fill="#51cacc" stroke="none" stroke-width="none" transform="translate(-52.07000732421875,13.084353942871093)" style="fill: rgb(222, 157, 214);"></path></g></g>
</g>
</g>
<style id="breath-671c1c9b-6f58-44f2-87ce-f553e310d113" data-anikit="">@keyframes breath-671c1c9b-6f58-44f2-87ce-f553e310d113
{
  0% {
    animation-timing-function: cubic-bezier(0.9647,0.2413,-0.0705,0.7911);
    transform: scale(0.9099999999999999);
  }
  51% {
    animation-timing-function: cubic-bezier(0.9226,0.2631,-0.0308,0.7628);
    transform: scale(1.02994);
  }
  100% {
    transform: scale(0.9099999999999999);
  }
}</style></svg>