<?xml version="1.0" encoding="utf-8"?>
<svg xmlns="http://www.w3.org/2000/svg" style="margin: auto; background: none; display: block; shape-rendering: auto;" width="280" height="250" preserveAspectRatio="xMidYMid">
<style type="text/css">
  text {
    text-anchor: middle; font-size: 80px; opacity: 0;
  }
</style>
<g style="transform-origin:140px 125px;transform:scale(1)">
<g transform="translate(140,125)">
  <g transform="translate(0,0)"><g class="path" style="transform: scale(0.91); transform-origin: -67.66px 2.97125px; animation: 1.85185s linear -0.916667s infinite normal forwards running breath-f5c62092-7b0a-4011-968d-9e1f036dac24;"><path d="M33.67-27.42L26.21 0L14.34 0L1.99-45.12L15.20-45.12L22.93-13.48L29.38-45.12L41.25-45.12L49.14-12.62L56.76-45.12L65.90-45.12L52.23 0L40.35 0L33.67-27.42" fill="#ffffff" stroke="none" stroke-width="none" transform="translate(-101.60498046875,25.53125)" style="fill: rgb(255, 255, 255);"></path></g><g class="path" style="transform: scale(0.91); transform-origin: -11.155px 13.3813px; animation: 1.85185s linear -0.611111s infinite normal forwards running breath-f5c62092-7b0a-4011-968d-9e1f036dac24;"><path d="M104.34-45.12L113.48-45.12L97.07-5.43L97.07-5.43Q94.26 1.37 90.80 8.03L90.80 8.03L90.80 8.03Q87.34 14.69 83.32 20.82L83.32 20.82L78.16 17.70L78.16 17.70Q79.14 15.94 80.47 13.63L80.47 13.63L80.47 13.63Q81.80 11.33 83.09 8.87L83.09 8.87L83.09 8.87Q84.38 6.41 85.47 4.00L85.47 4.00L85.47 4.00Q86.56 1.60 87.15-0.39L87.15-0.39L67.42-45.12L80.63-45.12L94.02-14.61L104.34-45.12" fill="#ffffff" stroke="none" stroke-width="none" transform="translate(-101.60498046875,25.53125)" style="fill: rgb(255, 245, 245);"></path></g><g class="path" style="transform: scale(0.91); transform-origin: 41.36px -4.80375px; animation: 1.85185s linear -0.305556s infinite normal forwards running breath-f5c62092-7b0a-4011-968d-9e1f036dac24;"><path d="M166.95-22.50L166.95-22.50L166.95-22.50Q166.95-17.58 165.47-13.28L165.47-13.28L165.47-13.28Q163.98-8.98 161.17-5.80L161.17-5.80L161.17-5.80Q158.36-2.62 154.30-0.78L154.30-0.78L154.30-0.78Q150.23 1.05 145.08 1.05L145.08 1.05L145.08 1.05Q142.46 1.05 140.10 0.27L140.10 0.27L140.10 0.27Q137.73-0.51 135.76-1.93L135.76-1.93L135.76-1.93Q133.79-3.36 132.29-5.35L132.29-5.35L132.29-5.35Q130.78-7.34 129.92-9.80L129.92-9.80L124.06 0L118.98 0L118.98-61.72L132.19-61.72L132.19-39.73L132.19-39.73Q134.53-42.97 137.83-44.49L137.83-44.49L137.83-44.49Q141.13-46.02 145.08-46.02L145.08-46.02L145.08-46.02Q150.23-46.02 154.30-44.18L154.30-44.18L154.30-44.18Q158.36-42.34 161.17-39.18L161.17-39.18L161.17-39.18Q163.98-36.02 165.47-31.72L165.47-31.72L165.47-31.72Q166.95-27.42 166.95-22.50zM153.55-22.50L153.55-22.50L153.55-22.50Q153.55-24.22 153.38-26.15L153.38-26.15L153.38-26.15Q153.20-28.09 152.77-30L152.77-30L152.77-30Q152.34-31.91 151.58-33.67L151.58-33.67L151.58-33.67Q150.82-35.43 149.65-36.78L149.65-36.78L149.65-36.78Q148.48-38.13 146.84-38.93L146.84-38.93L146.84-38.93Q145.20-39.73 142.97-39.73L142.97-39.73L142.97-39.73Q140.94-39.73 139.36-38.89L139.36-38.89L139.36-38.89Q137.77-38.05 136.58-36.64L136.58-36.64L136.58-36.64Q135.39-35.23 134.57-33.44L134.57-33.44L134.57-33.44Q133.75-31.64 133.24-29.73L133.24-29.73L133.24-29.73Q132.73-27.81 132.50-25.94L132.50-25.94L132.50-25.94Q132.27-24.06 132.27-22.50L132.27-22.50L132.27-22.50Q132.27-20.74 132.44-18.79L132.44-18.79L132.44-18.79Q132.62-16.84 133.05-14.90L133.05-14.90L133.05-14.90Q133.48-12.97 134.24-11.23L134.24-11.23L134.24-11.23Q135-9.49 136.19-8.14L136.19-8.14L136.19-8.14Q137.38-6.80 139.04-6.02L139.04-6.02L139.04-6.02Q140.70-5.23 142.97-5.23L142.97-5.23L142.97-5.23Q145.16-5.23 146.82-6.04L146.82-6.04L146.82-6.04Q148.48-6.84 149.65-8.18L149.65-8.18L149.65-8.18Q150.82-9.53 151.58-11.31L151.58-11.31L151.58-11.31Q152.34-13.09 152.77-15L152.77-15L152.77-15Q153.20-16.91 153.38-18.85L153.38-18.85L153.38-18.85Q153.55-20.78 153.55-22.50" fill="#ffffff" stroke="none" stroke-width="none" transform="translate(-101.60498046875,25.53125)" style="fill: rgb(255, 231, 231);"></path></g><g class="path" style="transform: scale(0.91); transform-origin: 86.035px -5.32875px; animation: 1.85185s linear 0s infinite normal forwards running breath-f5c62092-7b0a-4011-968d-9e1f036dac24;"><path d="M191.52-39.88L191.52 0L178.28 0L178.28-39.88L170.08-39.88L170.08-45.12L178.28-45.12L178.28-61.72L191.52-61.72L191.52-45.12L205.20-45.12L205.20-39.88L191.52-39.88" fill="#ffffff" stroke="none" stroke-width="none" transform="translate(-101.60498046875,25.53125)" style="fill: rgb(255, 219, 219);"></path></g></g>
</g>
</g>
<style id="breath-f5c62092-7b0a-4011-968d-9e1f036dac24" data-anikit="">@keyframes breath-f5c62092-7b0a-4011-968d-9e1f036dac24
{
  0% {
    animation-timing-function: cubic-bezier(0.9647,0.2413,-0.0705,0.7911);
    transform: scale(0.9099999999999999);
  }
  51% {
    animation-timing-function: cubic-bezier(0.9226,0.2631,-0.0308,0.7628);
    transform: scale(1.02994);
  }
  100% {
    transform: scale(0.9099999999999999);
  }
}</style></svg>