<svg xmlns="http://www.w3.org/2000/svg" xmlns:xlink="http://www.w3.org/1999/xlink" width="1080" zoomAndPan="magnify" viewBox="0 0 810 809.999993" height="1080" preserveAspectRatio="xMidYMid meet" version="1.0"><defs><g/><clipPath id="id1"><path d="M 116 234 L 742 234 L 742 604 L 116 604 Z M 116 234 " clip-rule="nonzero"/></clipPath><clipPath id="id2"><path d="M 56.824219 357.5 L 670.890625 175.386719 L 752.988281 452.21875 L 138.925781 634.332031 Z M 56.824219 357.5 " clip-rule="nonzero"/></clipPath><clipPath id="id3"><path d="M 670.980469 175.359375 L 56.914062 357.472656 L 139.015625 634.304688 L 753.078125 452.191406 Z M 670.980469 175.359375 " clip-rule="nonzero"/></clipPath><clipPath id="id4"><path d="M 670.453125 175.515625 L 53.066406 358.613281 L 135.164062 635.445312 L 752.550781 452.347656 Z M 670.453125 175.515625 " clip-rule="nonzero"/></clipPath><clipPath id="id5"><path d="M 670.453125 175.515625 L 57.640625 357.257812 L 139.726562 634.03125 L 752.535156 452.292969 Z M 670.453125 175.515625 " clip-rule="nonzero"/></clipPath></defs><g clip-path="url(#id1)"><g clip-path="url(#id2)"><g clip-path="url(#id3)"><g clip-path="url(#id4)"><g clip-path="url(#id5)"><path fill="#ffffff" d="M 133.585938 577.730469 C 137.4375 590.726562 162.140625 593.285156 171.257812 593.164062 C 219.769531 591.921875 272.097656 580.902344 345.863281 562.332031 L 705.597656 455.644531 C 724.359375 450.078125 735.109375 430.316406 729.546875 411.554688 L 723.785156 392.128906 L 620.863281 422.652344 C 620.84375 422.65625 620.84375 422.65625 620.84375 422.65625 L 329.808594 508.96875 C 258.761719 526.738281 178.902344 545.796875 129.285156 547.488281 C 128.230469 547.90625 127.34375 548.683594 126.796875 549.691406 C 126.152344 550.855469 126.003906 552.175781 126.382812 553.449219 Z M 649.242188 245.066406 C 646.726562 245.710938 644.714844 247.421875 643.625 249.871094 L 636.320312 278.125 C 636.277344 278.324219 636.207031 278.511719 636.144531 278.714844 C 629.824219 294.8125 619.019531 306.023438 604.59375 311.230469 L 565.703125 322.765625 C 518.855469 336.660156 502.835938 325.828125 487.328125 315.335938 C 482.648438 312.164062 478.230469 309.179688 472.929688 306.769531 C 460.972656 301.5625 451.964844 299.34375 444.304688 298.871094 C 455.484375 303.957031 465.417969 310.980469 475.121094 317.863281 C 496.71875 333.210938 517.117188 347.722656 549.074219 338.242188 L 602.550781 322.382812 C 613.222656 319.21875 626.691406 314.132812 636.09375 302.777344 C 639.605469 298.535156 649.8125 275.613281 653.996094 245.703125 C 652.625 244.910156 650.960938 244.660156 649.242188 245.066406 Z M 461.558594 251.710938 C 454.105469 247.6875 447.011719 251.566406 440.507812 263.214844 L 425.714844 290.59375 C 440.097656 287.320312 453.886719 287.421875 477.042969 297.519531 C 481.765625 299.648438 485.785156 302.128906 489.59375 304.65625 C 488.09375 282.808594 476.855469 261.082031 461.558594 251.710938 Z M 391.363281 322.230469 L 408.921875 333.925781 C 410.492188 334.84375 411.824219 335.851562 413.039062 336.875 C 422.710938 327.339844 431.910156 317.964844 440.929688 308.457031 C 434.679688 305.5625 428.082031 303.371094 420.890625 302.324219 C 420.113281 302.558594 419.328125 302.769531 418.550781 303 C 411.816406 305.160156 405.3125 308.804688 400.128906 313.890625 C 397.445312 316.542969 394.492188 319.339844 391.363281 322.230469 Z M 256.273438 429.742188 L 284.859375 450.265625 C 289.730469 452.824219 293.664062 451.742188 295.078125 449.257812 C 296.636719 446.503906 294.546875 442.808594 289.460938 439.796875 L 266.125 423.042969 L 262.945312 425.207031 C 260.695312 426.742188 258.476562 428.246094 256.273438 429.742188 Z M 234.234375 445.074219 C 241.851562 450.636719 248.109375 456.273438 254.15625 465.441406 C 260.070312 461.703125 266.09375 457.769531 272.1875 453.652344 L 247.363281 435.855469 C 242.765625 439.011719 238.386719 442.085938 234.234375 445.074219 Z M 274.753906 416.75 L 295.003906 431.324219 C 296.703125 432.304688 298.101562 433.398438 299.363281 434.527344 C 304.082031 431.066406 308.832031 427.511719 313.5625 423.878906 L 287.894531 406.785156 C 282.515625 410.878906 278.046875 414.265625 274.753906 416.75 Z M 296.390625 400.261719 L 322.578125 417.714844 C 327.632812 420.46875 331.703125 419.367188 333.117188 416.882812 C 334.675781 414.128906 332.5625 410.421875 327.605469 407.496094 L 305.800781 392.972656 C 302.53125 395.53125 299.363281 397.953125 296.390625 400.261719 Z M 314.222656 386.40625 L 332.996094 398.921875 C 335.496094 400.386719 337.429688 402.023438 338.992188 403.746094 C 343.523438 400.007812 348.109375 396.171875 352.734375 392.261719 L 327.832031 375.664062 C 323.183594 379.351562 318.632812 382.953125 314.222656 386.40625 Z M 336.152344 369.027344 L 360.546875 385.300781 C 365.660156 388.054688 369.757812 386.964844 371.152344 384.488281 C 371.75 383.445312 371.796875 382.066406 371.144531 380.566406 C 371 380.21875 370.796875 379.886719 370.597656 379.554688 C 370.488281 379.398438 370.40625 379.261719 370.292969 379.085938 C 370.148438 378.882812 369.941406 378.675781 369.773438 378.457031 C 369.550781 378.191406 369.335938 377.945312 369.066406 377.675781 C 369.03125 377.625 368.984375 377.597656 368.953125 377.566406 C 368.066406 376.734375 366.972656 375.902344 365.597656 375.09375 L 345.335938 361.597656 C 342.273438 364.09375 339.207031 366.570312 336.152344 369.027344 Z M 353.550781 354.886719 L 370.984375 366.519531 C 372.234375 367.242188 373.367188 368.0625 374.421875 368.90625 C 374.941406 369.328125 375.375 369.757812 375.835938 370.199219 C 376.160156 370.515625 376.554688 370.808594 376.859375 371.132812 C 380.976562 367.394531 385.335938 363.355469 389.847656 359.128906 L 366.828125 343.789062 C 362.484375 347.46875 358.050781 351.179688 353.550781 354.886719 Z M 374.824219 336.957031 L 398.511719 352.742188 C 399.074219 353.046875 399.621094 353.277344 400.164062 353.511719 C 400.257812 353.542969 400.355469 353.597656 400.449219 353.632812 C 404.691406 355.261719 407.960938 354.230469 409.171875 352.117188 C 410.496094 349.765625 409.34375 345.9375 403.535156 342.519531 L 383.609375 329.253906 C 380.78125 331.765625 377.847656 334.347656 374.824219 336.957031 Z M 614.355469 414.015625 C 613.195312 349.507812 658.644531 312.230469 683.683594 296.691406 C 682.164062 295.121094 680.625 293.554688 679.007812 292.070312 C 670.667969 284.496094 669.167969 279.367188 667.261719 272.871094 L 666.933594 271.773438 C 666.148438 269.117188 664.472656 263.542969 662.1875 258.132812 C 657.371094 282.71875 648.929688 303.160156 643.914062 309.230469 C 632.742188 322.695312 617.488281 328.523438 605.429688 332.097656 L 551.957031 347.957031 C 515.269531 358.835938 491.867188 342.207031 469.246094 326.128906 C 462.863281 321.601562 456.644531 317.210938 450.207031 313.40625 C 440.128906 324.070312 429.847656 334.550781 418.953125 345.253906 C 420.40625 349.527344 419.867188 353.773438 418.003906 357.09375 C 416.222656 360.222656 413.199219 362.707031 409.347656 363.851562 C 406.535156 364.683594 403.234375 364.695312 399.671875 363.832031 C 393.226562 369.890625 387.253906 375.398438 381.582031 380.507812 C 382.035156 383.777344 381.429688 386.890625 380 389.457031 C 378.199219 392.65625 375.125 395.175781 371.214844 396.335938 C 368.820312 397.046875 366.089844 397.175781 363.144531 396.707031 C 356.566406 402.332031 350.035156 407.820312 343.597656 413.074219 C 343.992188 416.277344 343.367188 419.332031 341.949219 421.859375 C 340.1875 424.980469 337.09375 427.507812 333.164062 428.675781 C 330.410156 429.492188 327.238281 429.523438 323.855469 428.773438 C 317.585938 433.625 311.304688 438.355469 305.058594 442.933594 C 306.292969 447.027344 305.699219 451.082031 303.882812 454.285156 C 302.089844 457.4375 298.9375 459.980469 294.96875 461.15625 C 291.039062 462.324219 286.300781 462.015625 281.320312 459.714844 C 273.867188 464.816406 266.492188 469.625 259.269531 474.179688 C 264.0625 483.308594 268.960938 495.371094 274.554688 512.0625 C 292.214844 507.878906 309.945312 503.507812 327.136719 499.195312 Z M 720.902344 382.414062 L 710.765625 348.226562 C 707.148438 331.777344 700.199219 316.914062 690.441406 304.429688 C 667.832031 318.132812 624.804688 352.070312 624.476562 411.011719 Z M 132.363281 537.183594 C 166.699219 535.503906 215.03125 525.917969 264.644531 514.382812 C 249.777344 470.246094 240.507812 461.707031 225.570312 451.316406 C 212.65625 460.367188 192.3125 472.65625 179.539062 479.457031 C 150.425781 494.984375 126.816406 510.179688 132.363281 537.183594 Z M 117.90625 544.792969 C 119.066406 542.714844 120.703125 541.054688 122.613281 539.765625 C 114.570312 502.75 150.570312 483.425781 174.761719 470.53125 C 188.035156 463.460938 210.816406 449.644531 222.792969 440.847656 C 222.792969 440.847656 222.8125 440.84375 222.8125 440.84375 C 222.96875 440.734375 223.136719 440.605469 223.289062 440.496094 C 233.199219 433.160156 244.878906 425.238281 257.257812 416.820312 L 262.765625 413.101562 C 263.660156 412.425781 354.097656 344.960938 393.027344 306.667969 C 398.453125 301.34375 404.972656 297.285156 412.019531 294.636719 L 431.625 258.335938 C 440.988281 241.566406 453.648438 235.914062 466.621094 242.941406 C 486.863281 255.328125 500.496094 283.734375 499.835938 311.402344 C 512.449219 319.09375 527.101562 323.644531 562.820312 313.050781 L 601.433594 301.621094 C 615.59375 296.492188 622.914062 284.539062 626.578125 275.296875 L 633.886719 247 C 633.945312 246.777344 634.023438 246.546875 634.109375 246.355469 C 636.394531 240.746094 641.152344 236.589844 646.898438 235.214844 C 652.246094 233.941406 657.597656 235.203125 661.578125 238.664062 C 668.882812 245.042969 673.480469 258.167969 676.65625 268.890625 L 676.988281 270.007812 C 678.726562 275.933594 679.585938 278.898438 685.835938 284.578125 C 703.261719 300.421875 715.308594 321.679688 720.589844 345.6875 L 739.269531 408.671875 C 746.417969 432.785156 732.597656 458.203125 708.480469 465.355469 L 348.535156 572.105469 C 273.867188 590.90625 220.972656 602.03125 171.453125 603.300781 C 169.804688 603.316406 130.679688 603.609375 123.863281 580.613281 L 116.660156 556.332031 C 115.507812 552.441406 115.945312 548.347656 117.90625 544.792969 " fill-opacity="1" fill-rule="nonzero"/></g></g></g></g></g><g fill="#ffffff" fill-opacity="1"><g transform="translate(364.508316, 543.000133)"><g><path d="M 9.335938 -29.910156 C 6.546875 -29.6875 4.042969 -28.6875 1.660156 -27.265625 C 0.148438 -26.355469 -0.929688 -25.011719 -1.722656 -23.398438 C -2.617188 -21.605469 -2.878906 -19.742188 -2.335938 -17.761719 C -1.785156 -15.734375 -0.644531 -14.136719 1.496094 -13.449219 C 2.460938 -13.125 3.425781 -12.800781 4.46875 -12.550781 C 6.3125 -12.179688 8.136719 -11.707031 10.050781 -11.613281 C 11.066406 -11.457031 12.0625 -11.191406 12.972656 -10.699219 C 13.460938 -10.4375 13.914062 -10.113281 13.800781 -9.46875 C 13.71875 -8.882812 13.304688 -8.554688 12.804688 -8.355469 C 11.441406 -7.796875 10.074219 -7.59375 8.605469 -7.5625 C 6.6875 -7.5 4.898438 -7.679688 3.078125 -8.3125 C 2.804688 -8.382812 2.53125 -8.605469 2.125 -8.433594 C 1.464844 -7.066406 1.246094 -5.570312 1.101562 -4 C 1.496094 -3.707031 1.765625 -3.484375 2.148438 -3.394531 C 3.238281 -3.160156 4.34375 -2.875 5.453125 -2.746094 C 7.582031 -2.617188 9.640625 -2.722656 11.832031 -3.070312 C 14.894531 -3.574219 17.769531 -4.53125 20.242188 -6.492188 C 22.859375 -8.496094 23.964844 -11.121094 23.1875 -14.40625 C 22.46875 -17.507812 20.289062 -19 17.421875 -19.726562 C 15.152344 -20.324219 12.945312 -20.890625 10.71875 -21.347656 C 9.902344 -21.511719 9.121094 -21.738281 8.191406 -22.125 C 6.621094 -22.777344 6.953125 -24.046875 7.636719 -24.660156 C 8.769531 -25.660156 11.960938 -25.898438 13.390625 -24.691406 C 13.917969 -24.289062 14.335938 -23.75 14.847656 -23.394531 C 16.453125 -23.820312 18.128906 -24.015625 19.609375 -24.863281 C 19.359375 -26.21875 18.503906 -27.035156 17.648438 -27.847656 C 16.542969 -28.996094 15.253906 -29.734375 13.605469 -29.957031 C 12.15625 -30.035156 10.746094 -29.972656 9.335938 -29.910156 Z M 9.335938 -29.910156 "/></g></g></g><g fill="#ffffff" fill-opacity="1"><g transform="translate(391.616696, 534.918657)"><g><path d="M 4.289062 -37.429688 C 0.613281 -36.078125 -3.167969 -35.257812 -6.859375 -33.953125 C -3.925781 -22.742188 -0.410156 -11.808594 3.230469 -0.964844 C 3.480469 -0.984375 3.648438 -0.933594 3.789062 -0.976562 C 5.839844 -1.792969 7.898438 -2.40625 10.066406 -3 C 11.453125 -3.3125 12.84375 -3.777344 14.03125 -4.589844 C 14.132812 -4.925781 14.097656 -5.222656 13.964844 -5.488281 C 13.375 -6.792969 13.0625 -8.175781 12.65625 -9.535156 C 11.382812 -13.640625 10.386719 -17.832031 9.160156 -21.953125 C 9.007812 -22.46875 9.082031 -22.898438 9.359375 -23.339844 C 10.136719 -24.488281 11 -25.355469 12.378906 -25.871094 C 14.300781 -26.597656 15.957031 -25.660156 16.707031 -24 C 17.519531 -22.304688 18.03125 -20.417969 18.65625 -18.664062 C 19.152344 -17.335938 19.355469 -15.96875 19.792969 -14.671875 C 20.183594 -13.359375 20.578125 -12.046875 21.027344 -10.703125 C 21.394531 -9.640625 21.683594 -8.503906 22.019531 -7.378906 C 22.101562 -7.097656 22.28125 -6.847656 22.570312 -6.730469 C 23.921875 -6.980469 31.761719 -9.417969 33.191406 -10.097656 C 33.347656 -10.605469 33.3125 -11.054688 33.1875 -11.476562 L 31.960938 -15.59375 C 31.320312 -17.394531 30.84375 -19.339844 30.34375 -21.179688 C 29.878906 -23.082031 29.195312 -24.867188 28.652344 -26.691406 C 27.910156 -29.175781 26.332031 -31.050781 24.183594 -32.449219 C 23.304688 -33 22.34375 -33.480469 21.222656 -33.65625 C 17.09375 -34.160156 13.730469 -32.441406 10.726562 -29.863281 C 9.664062 -28.988281 8.734375 -27.996094 7.617188 -26.949219 C 7.304688 -28.179688 6.921875 -29.289062 6.476562 -30.433594 C 5.988281 -31.5625 5.78125 -32.773438 5.335938 -33.917969 C 4.957031 -35.027344 4.855469 -36.222656 4.289062 -37.429688 Z M 4.289062 -37.429688 "/></g></g></g><g fill="#ffffff" fill-opacity="1"><g transform="translate(428.229401, 524.003778)"><g><path d="M 7.234375 -29.433594 C 5.886719 -28.828125 4.621094 -27.941406 3.402344 -27.070312 C -0.160156 -24.476562 -2.046875 -21.058594 -2.035156 -16.574219 C -2.011719 -14.441406 -1.53125 -12.492188 -0.746094 -10.535156 C 0 -8.71875 1.171875 -7.183594 2.695312 -6.003906 C 5.003906 -4.246094 7.582031 -3.128906 10.632812 -3.324219 C 10.679688 -3.335938 10.742188 -3.304688 10.835938 -3.332031 C 12.578125 -3.136719 14.242188 -3.53125 15.925781 -3.878906 C 17.417969 -4.171875 18.828125 -4.746094 20.230469 -5.164062 C 23.734375 -6.414062 26.777344 -8.1875 28.75 -11.476562 C 29.207031 -12.175781 29.433594 -12.957031 29.753906 -13.765625 C 30.242188 -15.03125 30.453125 -16.371094 30.390625 -17.777344 C 30.269531 -19.730469 29.898438 -21.660156 28.964844 -23.421875 C 28.046875 -25.136719 27.058594 -26.730469 25.601562 -28.027344 C 23.542969 -29.808594 21.273438 -30.917969 18.625 -31.25 C 17.085938 -31.453125 15.542969 -31.503906 14.003906 -31.351562 C 11.632812 -31.101562 9.386719 -30.433594 7.234375 -29.433594 Z M 12.085938 -25.476562 C 13.050781 -25.664062 13.890625 -25.402344 14.695312 -24.929688 C 16.246094 -24.015625 16.960938 -22.289062 17.542969 -20.679688 L 18.128906 -18.710938 C 18.632812 -17.027344 19.042969 -15.3125 19 -13.566406 C 18.957031 -12.6875 18.808594 -11.828125 18.367188 -11.082031 C 17.359375 -9.152344 15.28125 -8.941406 13.605469 -10.125 C 13.105469 -10.433594 12.5625 -10.882812 12.222656 -11.34375 C 11.136719 -12.753906 10.542969 -14.410156 9.960938 -16.023438 C 9.203125 -18.039062 9.289062 -20.15625 9.417969 -22.285156 C 9.5 -23.890625 10.59375 -25.183594 12.085938 -25.476562 Z M 12.085938 -25.476562 "/></g></g></g><g fill="#ffffff" fill-opacity="1"><g transform="translate(463.531162, 513.479713)"><g><path d="M 10.175781 -30.515625 C 8.199219 -30.132812 6.429688 -29.398438 4.648438 -28.359375 C 3.214844 -27.523438 2.71875 -26.96875 1.714844 -26.054688 C 0.507812 -24.980469 -0.292969 -23.722656 -0.878906 -22.273438 C -1.9375 -19.664062 -2.160156 -16.996094 -1.816406 -14.296875 C -1.527344 -12.136719 -0.679688 -10.148438 0.574219 -8.328125 C 1.878906 -6.527344 3.605469 -5.355469 5.558594 -4.613281 C 7.453125 -3.90625 9 -3.5 11.042969 -3.496094 C 12.679688 -3.472656 13.664062 -3.765625 15.230469 -3.980469 C 16.859375 -4.160156 18.425781 -4.726562 19.867188 -5.363281 C 22.292969 -6.289062 23.605469 -7.191406 25.457031 -9.015625 C 26.398438 -9.960938 27.261719 -11.339844 27.890625 -12.648438 C 26.53125 -14.128906 24.902344 -15.835938 24.644531 -15.503906 C 24.199219 -15.117188 23.960938 -14.382812 23.636719 -13.929688 C 22.363281 -12.378906 21.71875 -11.472656 19.804688 -10.699219 C 18.269531 -10.035156 16.695312 -9.667969 15.070312 -10 C 13.023438 -10.359375 11.304688 -12.191406 11.011719 -14.195312 C 11.421875 -14.367188 11.847656 -14.648438 12.269531 -14.773438 C 14.605469 -15.316406 16.796875 -16.171875 19.132812 -16.71875 C 21.703125 -17.332031 22.898438 -17.941406 25.425781 -18.695312 C 25.753906 -18.792969 26.359375 -18.820312 26.308594 -19.160156 C 26.3125 -19.316406 26.277344 -19.613281 26.234375 -19.75 C 25.480469 -22.789062 24.59375 -25.074219 22.484375 -27.199219 C 21.914062 -27.742188 21.410156 -28.410156 20.679688 -28.804688 C 17.109375 -30.695312 14.175781 -31.300781 10.175781 -30.515625 Z M 12.472656 -25.03125 C 12.71875 -24.898438 12.914062 -24.753906 13.078125 -24.546875 C 13.929688 -23.222656 14.644531 -21.855469 14.710938 -20.089844 C 12.90625 -19.652344 11.347656 -18.882812 9.515625 -18.539062 C 9.121094 -20.207031 8.832031 -21.855469 9.347656 -23.539062 C 9.75 -24.933594 11.273438 -25.640625 12.472656 -25.03125 Z M 12.472656 -25.03125 "/></g></g></g><g fill="#ffffff" fill-opacity="1"><g transform="translate(495.181015, 504.044345)"><g><path d="M 2.671875 -10.023438 C 2.015625 -9.320312 1.433594 -8.535156 1.230469 -7.503906 C 0.652344 -3.96875 2.839844 -1.765625 5.929688 -1.664062 C 6.761719 -1.609375 7.605469 -1.859375 8.398438 -2.097656 C 9.585938 -2.398438 10.625 -3.015625 11.5 -3.835938 C 13.621094 -5.792969 14 -9.988281 10.035156 -11.660156 C 7.535156 -12.699219 4.589844 -11.972656 2.671875 -10.023438 Z M 2.671875 -10.023438 "/></g></g></g></svg>